<?xml version="1.0" encoding="UTF-8" standalone="no"?>
<!DOCTYPE svg PUBLIC "-//W3C//DTD SVG 20010904//EN"
              "http://www.w3.org/TR/2001/REC-SVG-20010904/DTD/svg10.dtd">

<svg xmlns="http://www.w3.org/2000/svg"
    width="500px" height="250px"
     viewBox="0 0 2000 1000">
  <path id="Selection"
        fill="none" stroke="black" stroke-width="3"
        d="M 723.00,817.65
           C 727.40,816.74 732.17,816.39 735.89,819.43
             743.88,825.96 743.79,850.33 727.00,848.89
             711.84,847.60 714.13,826.22 716.85,822.10
             718.58,819.50 720.29,818.80 723.00,817.65 Z
           M 173.00,864.00
           C 173.00,848.35 176.23,829.83 192.00,822.33
             200.20,818.43 208.24,819.00 217.00,819.00
             219.95,819.00 225.34,818.81 228.00,819.57
             231.99,820.71 235.47,823.95 236.73,828.00
             236.99,829.54 237.06,832.41 236.73,834.00
             235.08,851.10 213.52,839.81 205.02,843.65
             196.92,847.31 198.00,857.64 198.00,865.00
             198.00,865.00 220.00,865.00 220.00,865.00
             223.80,865.02 226.76,864.86 229.89,867.43
             235.71,872.19 235.39,882.06 228.96,886.15
             224.17,889.18 204.58,888.00 198.00,888.00
             198.00,888.00 198.00,983.00 198.00,983.00
             197.99,986.47 198.27,989.92 196.26,992.96
             191.94,999.51 180.59,999.85 175.65,993.79
             172.77,990.25 173.01,986.26 173.00,982.00
             173.00,982.00 173.00,888.00 173.00,888.00
             166.84,888.00 155.13,889.02 150.10,885.77
             143.12,881.27 143.05,869.24 151.02,865.43
             155.38,863.34 167.68,864.00 173.00,864.00 Z
           M 772.00,863.00
           C 772.00,855.75 770.49,837.43 774.51,832.04
             780.69,823.76 796.74,824.93 797.00,840.00
             797.00,840.00 797.00,863.00 797.00,863.00
             803.16,863.00 814.87,861.98 819.90,865.23
             827.05,869.85 826.74,881.83 818.98,885.83
             815.32,887.71 801.79,887.00 797.00,887.00
             797.00,887.00 797.00,950.00 797.00,950.00
             797.00,955.55 795.59,968.84 801.14,971.79
             806.47,974.62 812.97,968.27 819.00,967.56
             832.03,966.01 839.10,982.92 825.98,991.90
             818.20,997.22 811.11,998.10 802.00,998.00
             782.99,997.77 772.09,984.37 772.00,966.00
             772.00,966.00 772.00,888.00 772.00,888.00
             766.27,888.00 755.96,888.70 751.04,886.23
             743.19,882.29 742.99,869.67 750.10,865.28
             755.16,862.15 765.94,863.00 772.00,863.00 Z
           M 342.00,978.00
           C 337.25,988.05 326.27,993.37 316.00,996.12
             289.86,1003.09 262.07,992.78 246.16,971.00
             230.62,949.73 228.45,920.45 240.37,897.00
             255.36,867.51 293.31,849.99 324.00,866.32
             331.99,870.57 337.11,875.28 343.00,882.00
             343.23,876.94 343.85,867.05 347.42,863.39
             352.85,857.82 362.04,859.78 365.99,866.04
             368.21,869.56 367.99,873.04 368.00,877.00
             368.00,877.00 368.00,981.00 368.00,981.00
             367.99,985.10 368.12,989.30 365.91,992.96
             362.12,999.23 352.73,1000.95 347.39,995.61
             343.29,991.51 343.62,983.51 342.00,978.00 Z
           M 432.00,953.00
           C 432.00,953.00 451.42,911.00 451.42,911.00
             451.42,911.00 462.86,886.00 462.86,886.00
             465.30,880.51 470.84,866.81 475.10,863.51
             482.91,857.45 495.47,862.88 495.64,873.00
             495.75,878.79 485.31,899.69 482.26,906.00
             482.26,906.00 451.26,973.00 451.26,973.00
             446.81,982.22 442.79,998.77 430.00,997.78
             427.28,997.57 424.37,996.50 422.39,994.58
             419.40,991.69 413.44,975.81 411.42,971.00
             411.42,971.00 383.40,903.00 383.40,903.00
             379.93,894.48 372.54,880.83 373.04,872.00
             373.62,861.83 385.13,857.68 392.96,863.51
             398.35,867.53 402.09,880.53 404.85,887.00
             404.85,887.00 415.20,912.00 415.20,912.00
             415.20,912.00 432.00,953.00 432.00,953.00 Z
           M 545.00,861.22
           C 549.64,860.84 554.33,860.95 559.00,861.22
             566.91,861.10 575.85,863.42 583.00,866.78
             632.25,889.94 636.62,961.10 589.00,988.57
             582.48,992.33 575.47,995.46 568.00,996.72
             557.52,998.48 547.30,998.48 537.00,995.57
             529.46,993.45 520.23,988.82 514.00,984.10
             477.31,956.32 479.75,898.79 517.00,872.72
             526.28,866.22 533.97,863.48 545.00,861.22 Z
           M 654.00,878.00
           C 657.81,869.95 668.19,862.79 677.00,861.16
             677.00,861.16 688.00,861.16 688.00,861.16
             698.74,861.05 713.29,863.91 711.66,878.00
             711.32,880.93 710.14,883.64 707.86,885.57
             699.39,892.76 690.24,881.76 679.00,883.44
             660.62,886.19 655.03,903.77 655.00,920.00
             655.00,920.00 655.00,979.00 655.00,979.00
             654.99,983.77 654.91,991.04 651.57,994.77
             647.07,999.81 635.61,999.10 631.51,993.89
             628.74,990.38 629.01,986.21 629.00,982.00
             629.00,982.00 629.00,878.00 629.00,878.00
             629.01,873.84 628.87,869.75 631.09,866.02
             634.66,860.00 642.57,859.47 647.66,863.80
             651.66,867.20 652.25,873.26 654.00,878.00 Z
           M 723.00,861.70
           C 736.65,858.63 740.86,866.95 741.00,879.00
             741.00,879.00 741.00,981.00 741.00,981.00
             740.99,985.36 741.26,989.25 738.49,992.96
             733.47,999.68 722.62,999.93 717.70,992.96
             714.88,988.96 715.01,984.64 715.00,980.00
             715.00,980.00 715.00,892.00 715.00,892.00
             715.00,886.40 714.10,871.42 716.45,867.09
             718.10,864.06 720.04,863.07 723.00,861.70 Z
           M 860.00,940.00
           C 862.26,948.35 865.96,953.86 872.01,960.00
             884.25,972.39 899.15,976.52 915.00,968.22
             918.57,966.34 921.03,964.69 923.99,961.91
             923.99,961.91 932.09,953.42 932.09,953.42
             937.91,948.72 945.77,949.16 950.57,955.10
             956.95,963.01 950.70,972.16 944.99,978.00
             931.34,991.94 915.61,998.82 896.00,997.96
             888.73,997.65 878.56,995.35 872.00,992.22
             828.23,971.33 818.28,908.32 856.01,876.62
             861.39,872.10 867.47,868.09 874.00,865.45
             902.96,853.75 935.31,865.82 950.33,893.00
             956.66,904.44 957.16,912.36 957.00,925.00
             956.93,929.62 956.47,933.30 952.79,936.58
             948.83,940.11 943.94,939.99 939.00,940.00
             939.00,940.00 860.00,940.00 860.00,940.00 Z
           M 1015.00,861.43
           C 1034.55,859.01 1056.10,862.23 1071.00,876.09
             1077.37,882.03 1085.83,892.95 1080.15,901.96
             1078.55,904.49 1075.86,906.48 1073.00,907.35
             1061.87,910.70 1057.78,898.85 1050.99,893.39
             1044.04,887.80 1033.76,885.67 1025.00,886.04
             1017.40,886.36 1005.12,889.19 999.04,893.79
             996.06,896.04 992.68,899.94 993.84,904.00
             996.59,913.59 1016.71,915.28 1025.00,916.16
             1049.94,918.83 1085.06,920.55 1086.91,953.00
             1087.97,971.61 1075.98,986.12 1059.00,992.12
             1038.69,999.71 1016.22,999.67 996.00,992.12
             983.99,987.34 964.75,973.62 966.11,959.00
             966.94,950.13 976.19,945.50 984.00,949.45
             990.18,952.59 991.63,959.40 1000.00,965.36
             1011.24,973.38 1032.13,973.39 1045.00,969.84
             1051.14,968.15 1058.37,964.57 1060.35,958.00
             1064.11,945.50 1045.97,944.27 1038.00,943.28
             1019.32,940.98 995.77,940.14 980.00,928.96
             968.76,920.98 967.85,912.66 968.00,900.00
             968.17,886.22 976.38,876.43 988.00,869.87
             996.50,865.08 1005.48,862.99 1015.00,861.43 Z
           M 292.00,886.32
           C 251.99,895.30 245.42,950.44 282.00,968.72
             286.45,970.95 293.02,972.76 298.00,972.96
             302.73,973.15 307.49,972.34 312.00,970.96
             348.99,959.66 351.82,905.51 317.00,889.32
             309.21,885.70 300.42,885.40 292.00,886.32 Z
           M 547.00,887.30
           C 541.26,888.42 536.84,890.22 532.00,893.57
             502.61,913.94 508.84,960.65 544.00,970.57
             549.37,972.09 555.46,972.44 561.00,971.71
             569.80,970.55 576.56,966.95 583.00,960.91
             601.21,943.83 601.53,915.85 583.83,898.17
             573.27,887.63 561.16,885.89 547.00,887.30 Z
           M 931.00,914.00
           C 928.01,901.25 918.04,890.30 905.00,887.52
             901.97,886.87 898.13,886.97 895.00,887.00
             883.88,887.14 876.47,892.01 869.09,900.00
             864.86,904.59 862.16,908.83 861.00,915.00
             861.00,915.00 883.00,915.00 883.00,915.00
             883.00,915.00 899.00,914.00 899.00,914.00
             899.00,914.00 931.00,914.00 931.00,914.00 Z" />
</svg>
