<?xml version="1.0" encoding="UTF-8" standalone="no"?>
<!DOCTYPE svg PUBLIC "-//W3C//DTD SVG 20010904//EN"
              "http://www.w3.org/TR/2001/REC-SVG-20010904/DTD/svg10.dtd">

<svg xmlns="http://www.w3.org/2000/svg"
     width="1000px" height="400px"
     viewBox="0 0 900 100">
  <path id="text"
        fill="#474bb3" stroke="#474bb3" stroke-width="2"
        d="M 535.00,48.57
           C 553.18,46.23 552.78,74.15 541.00,77.43
             525.84,81.64 523.60,60.64 527.17,54.09
             528.93,50.88 531.75,49.69 535.00,48.57 Z
           M 43.00,91.00
           C 43.00,77.00 44.97,61.18 59.00,53.99
             66.72,50.04 74.62,51.00 83.00,51.00
             85.91,51.00 91.44,50.74 93.98,51.74
             97.42,53.09 99.87,56.43 100.51,60.00
             100.92,61.62 100.86,63.41 100.51,65.00
             96.60,78.95 79.95,69.61 72.02,72.74
             65.07,75.47 65.06,85.63 65.00,92.00
             65.00,92.00 86.00,92.00 86.00,92.00
             101.30,92.21 100.11,106.61 92.96,111.15
             88.25,114.13 71.25,113.00 65.00,113.00
             65.00,113.00 66.00,129.00 66.00,129.00
             66.00,129.00 66.00,195.00 66.00,195.00
             65.99,199.35 66.14,204.17 63.30,207.79
             58.70,213.65 48.91,213.29 44.74,206.96
             42.73,203.92 43.01,200.47 43.00,197.00
             43.00,197.00 43.00,113.00 43.00,113.00
             37.24,113.00 26.97,113.81 22.19,110.72
             15.58,106.46 15.83,95.98 23.04,92.43
             27.16,90.41 38.03,91.00 43.00,91.00 Z
           M 576.00,91.00
           C 576.00,91.00 576.00,71.00 576.00,71.00
             576.22,55.50 591.29,55.51 596.49,62.11
             600.41,67.09 599.00,83.31 599.00,90.00
             604.61,90.00 614.24,89.20 618.92,92.09
             625.53,96.13 625.62,106.82 618.92,110.55
             614.93,112.75 603.90,112.00 599.04,112.00
             599.04,112.00 599.04,177.00 599.04,177.00
             599.04,177.00 599.04,182.00 599.04,182.00
             600.51,194.49 611.66,185.27 618.00,184.34
             625.63,183.23 631.75,189.40 630.77,197.00
             629.91,203.73 623.76,207.27 618.00,209.54
             605.23,214.57 588.14,212.54 580.48,200.00
             574.53,190.26 576.00,179.90 576.00,169.00
             576.00,169.00 576.00,112.00 576.00,112.00
             571.56,112.00 560.55,112.66 557.02,110.83
             549.41,106.87 549.41,95.98 557.02,92.02
             560.17,90.38 571.87,91.00 576.00,91.00 Z
           M 194.00,194.00
           C 189.74,203.01 179.33,208.13 170.00,210.35
             145.23,216.24 121.54,206.73 106.91,186.00
             85.96,156.29 95.56,112.01 128.00,94.78
             135.86,90.61 143.02,88.11 152.00,88.00
             172.81,87.76 180.34,92.34 195.00,107.00
             195.34,102.86 195.89,94.29 198.51,91.23
             202.69,86.34 211.59,87.12 215.30,92.11
             218.12,95.89 217.99,100.53 218.00,105.00
             218.00,105.00 218.00,167.00 218.00,167.00
             218.00,167.00 218.00,184.00 218.00,184.00
             218.00,184.00 216.91,196.00 216.91,196.00
             216.91,196.00 216.91,204.00 216.91,204.00
             215.08,213.29 202.96,214.11 198.43,208.85
             195.64,205.62 195.35,198.43 194.00,194.00 Z
           M 274.00,171.00
           C 274.00,171.00 291.00,134.00 291.00,134.00
             291.00,134.00 301.42,111.00 301.42,111.00
             303.42,106.41 308.79,93.37 312.21,90.70
             320.53,84.20 331.60,90.51 330.88,101.00
             330.54,105.97 322.82,120.51 320.42,126.00
             320.42,126.00 291.78,188.00 291.78,188.00
             288.01,195.99 283.67,211.78 273.00,211.64
             262.14,211.51 259.00,196.17 255.58,188.00
             255.58,188.00 229.80,126.00 229.80,126.00
             227.51,120.30 220.01,104.12 220.28,99.00
             220.79,89.29 231.34,85.11 238.89,90.70
             242.96,93.71 247.16,105.92 249.20,111.00
             249.20,111.00 258.20,133.00 258.20,133.00
             258.20,133.00 274.00,171.00 274.00,171.00 Z
           M 378.00,88.42
           C 385.67,87.49 395.69,88.57 403.00,91.08
             448.02,106.50 459.49,168.26 422.00,197.99
             416.58,202.28 410.53,205.99 404.00,208.30
             399.20,210.00 386.93,212.17 382.00,211.82
             369.46,210.93 357.00,207.35 347.00,199.48
             314.78,174.14 314.71,124.48 348.00,99.92
             358.50,92.17 365.46,90.32 378.00,88.42 Z
           M 470.00,103.00
           C 470.00,103.00 479.00,94.76 479.00,94.76
             488.73,87.51 496.47,87.22 508.00,88.87
             515.67,89.97 522.46,91.93 522.96,101.00
             523.05,102.70 523.00,105.41 522.40,106.98
             518.36,117.54 507.02,110.29 500.00,109.05
             490.92,107.46 483.12,111.42 478.11,119.00
             473.47,126.02 472.01,135.73 472.00,144.00
             472.00,144.00 472.00,197.00 472.00,197.00
             471.99,200.68 472.23,204.62 469.99,207.79
             466.02,213.42 454.98,213.42 451.01,207.79
             448.77,204.62 449.01,200.68 449.00,197.00
             449.00,197.00 449.00,102.00 449.00,102.00
             449.04,94.91 450.87,86.96 460.00,88.24
             467.99,89.35 469.84,96.14 470.00,103.00 Z
           M 534.00,88.65
           C 544.08,86.79 548.87,92.34 549.00,102.00
             549.00,102.00 549.00,197.00 549.00,197.00
             548.99,200.44 549.27,203.95 547.26,206.95
             543.10,213.18 533.36,213.57 528.65,207.79
             525.77,204.25 526.01,200.26 526.00,196.00
             526.00,196.00 526.00,116.00 526.00,116.00
             526.00,111.29 525.30,97.59 527.17,94.04
             528.81,90.96 530.98,89.93 534.00,88.65 Z
           M 794.00,88.43
           C 811.20,86.30 831.24,90.58 843.83,103.17
             850.10,109.44 857.36,122.63 846.96,128.91
             842.82,131.42 838.00,131.11 834.09,128.30
             829.85,125.25 828.63,120.26 822.00,115.97
             811.66,109.28 795.10,110.07 784.00,114.46
             779.72,116.16 773.33,119.91 772.79,125.00
             772.42,128.56 775.26,130.99 778.02,132.64
             783.13,135.70 792.04,137.19 798.00,137.84
             813.69,139.54 838.60,140.58 849.79,153.04
             856.26,160.25 856.10,167.01 856.00,176.00
             855.72,199.07 830.22,210.76 810.00,211.00
             810.00,211.00 796.00,211.00 796.00,211.00
             780.22,210.81 763.36,203.17 753.33,191.00
             748.23,184.82 743.95,171.70 754.02,167.74
             755.49,167.16 757.42,167.02 759.00,167.03
             769.77,167.11 768.52,175.00 777.01,181.21
             785.86,187.69 795.59,188.05 806.00,188.00
             813.86,187.96 822.97,186.42 828.89,180.79
             832.74,177.13 834.87,172.56 830.71,168.21
             825.87,163.14 813.80,162.56 807.00,161.93
             794.73,160.79 776.91,158.50 766.00,153.03
             760.93,150.49 756.02,146.88 752.99,142.00
             745.86,130.51 748.89,112.60 758.18,103.17
             767.56,93.66 781.36,90.50 794.00,88.43 Z
           M 654.00,160.00
           C 659.39,179.79 682.06,195.60 702.00,185.62
             713.75,179.74 715.41,169.93 725.00,169.11
             736.59,168.11 742.52,179.78 731.82,192.00
             719.96,205.54 707.53,210.57 690.00,211.82
             685.11,212.16 674.75,210.24 670.00,208.64
             626.45,193.99 615.23,135.24 648.01,104.09
             661.93,90.86 673.76,88.79 692.00,89.00
             712.46,89.24 732.20,106.00 738.48,125.00
             741.17,133.14 744.31,151.76 735.96,157.26
             732.92,159.27 729.47,158.99 726.00,159.00
             726.00,159.00 672.00,159.00 672.00,159.00
             672.00,159.00 654.00,160.00 654.00,160.00 Z
           M 149.00,111.32
           C 142.99,112.67 138.92,114.43 134.01,118.24
             102.88,142.37 122.98,194.84 162.00,188.56
             192.27,183.69 203.72,145.17 183.82,123.01
             174.11,112.21 162.88,109.80 149.00,111.32 Z
           M 382.00,111.32
           C 368.28,113.20 358.02,118.20 351.12,131.00
             338.04,155.26 352.93,187.66 382.00,188.00
             389.19,188.08 393.36,187.97 400.00,184.62
             429.95,169.56 427.58,126.64 397.00,113.88
             392.72,112.09 386.63,111.22 382.00,111.32 Z
           M 717.00,136.00
           C 715.05,125.28 705.78,115.00 695.00,112.53
             692.12,111.87 688.01,111.97 685.00,112.00
             681.88,112.04 680.02,112.09 677.00,113.10
             665.61,116.93 657.88,125.92 654.00,137.00
             654.00,137.00 673.00,137.00 673.00,137.00
             673.00,137.00 689.00,136.00 689.00,136.00
             689.00,136.00 717.00,136.00 717.00,136.00 Z" />
</svg>
